<svg xmlns:dc="http://purl.org/dc/elements/1.1/" xmlns:cc="http://creativecommons.org/ns#" xmlns:rdf="http://www.w3.org/1999/02/22-rdf-syntax-ns#" xmlns:svg="http://www.w3.org/2000/svg" xmlns="http://www.w3.org/2000/svg" xmlns:xlink="http://www.w3.org/1999/xlink" id="svg621594" viewBox="0 0 1024 768" height="768px" width="1024px" version="1.1">
  <metadata id="metadata621600">
    <rdf:rdf>
      <cc:work rdf:about="">
        <dc:format>image/svg+xml</dc:format>
        <dc:type rdf:resource="http://purl.org/dc/dcmitype/StillImage"></dc:type>
      </cc:work>
    </rdf:rdf>
  </metadata>
  <defs id="defs621598"></defs>
  <linearGradient spreadMethod="pad" y2="30%" x2="-10%" y1="120%" x1="30%" id="3d_gradient2-logo-980ce8d0-7ebe-4e2c-97bc-fc00f0e52d1e">
    <stop id="stop621575" stop-opacity="1" stop-color="#ffffff" offset="0%"></stop>
    <stop id="stop621577" stop-opacity="1" stop-color="#000000" offset="100%"></stop>
  </linearGradient>
  <linearGradient gradientTransform="rotate(-30)" spreadMethod="pad" y2="30%" x2="-10%" y1="120%" x1="30%" id="3d_gradient3-logo-980ce8d0-7ebe-4e2c-97bc-fc00f0e52d1e">
    <stop id="stop621580" stop-opacity="1" stop-color="#ffffff" offset="0%"></stop>
    <stop id="stop621582" stop-opacity="1" stop-color="#cccccc" offset="50%"></stop>
    <stop id="stop621584" stop-opacity="1" stop-color="#000000" offset="100%"></stop>
  </linearGradient>
  <g id="logo-group">
    <image xlink:href="" id="container" x="272" y="144" width="480" height="480" style="display: none;" transform="translate(0 0)"></image>
    <g id="logo-center" transform="translate(0 0)">
      <image xlink:href="" id="icon_container" x="0" y="0" style="display: none;"></image>
      <g id="slogan" style="font-style:normal;font-weight:400;font-size:32px;line-height:1;font-family:'Playfair Display';font-variant-ligatures:none;text-align:center;text-anchor:middle" transform="translate(0 0)"></g>
      <g id="title" style="font-style:normal;font-weight:normal;font-size:72px;line-height:1;font-family:'Brandmark Sans 28';font-variant-ligatures:normal;text-align:center;text-anchor:middle" transform="translate(0 0)">
        <g id="path621603" aria-label="B" transform="translate(0 324.83187999999996) translate(306.55305124999995 17.024000000000008) scale(1.67) translate(-389.88631 50.4)"> <path class="c1" d="M116.93152,96.00745c2.2207-2.32776,3.59235-5.4729,3.59235-8.94403 c0-7.16315-5.80688-12.97003-12.97003-12.97003h-7.14758l-23.87402,0.00012v11.28143l23.87402-0.00012h1.82538 c2.10773,0,3.81628,1.70862,3.81628,3.81628c0,2.10718-1.70795,3.81543-3.81494,3.81616l-1.82672-0.00006v0.00006 l-23.87408,0.00018l0.00012,11.28143l23.87463-0.00018v-0.00006h2.82019c2.47418,0,4.47986,2.00568,4.47986,4.47986 s-2.00568,4.47992-4.47986,4.47992l-2.82086-0.00018v0.00012l-23.87439,0.00012l0.00006,11.28143l23.87506-0.00012v-0.00012 h7.29999c8.70465,0,15.76117-7.05652,15.76117-15.76117C123.46814,103.51294,120.8858,98.87103,116.93152,96.00745z" transform="translate(313.35445 -124.49339)" stroke-width="0" stroke-linejoin="miter" stroke-miterlimit="2" fill="#6376bf" stroke="#6376bf"></path> <linearGradient id="9ec74f33-449d-4daf-be87-e26fad157b80" gradientUnits="userSpaceOnUse" x1="98.52805" y1="97.02248" x2="98.52805" y2="84.07533"> <stop offset="0" style="stop-color:#000000;stop-opacity:0.9"></stop> <stop offset="0.27595" style="stop-color:#0F0D0D;stop-opacity:0.65165"></stop> <stop offset="0.67484" style="stop-color:#1E1A1B;stop-opacity:0.29264"></stop> <stop offset="1" style="stop-color:#231F20;stop-opacity:0"></stop> </linearGradient> <path class="highlight" fill="url(#9ec74f33-449d-4daf-be87-e26fad157b80)" d="M116.93152,96.00745c2.2207-2.32776,3.59235-5.4729,3.59235-8.94403 c0-7.16315-5.80688-12.97003-12.97003-12.97003h-7.14758l-23.87402,0.00012v11.28143l23.87402-0.00012h1.82538 c2.10773,0,3.81628,1.70862,3.81628,3.81628c0,2.10718-1.70795,3.81543-3.81494,3.81616l5.474,0.00012 C111.15607,93.00739,114.33636,94.12811,116.93152,96.00745z" transform="translate(313.35445 -124.49339)" stroke-width="0" stroke-linejoin="miter" stroke-miterlimit="2" opacity="1"></path> <linearGradient id="c70c5d94-fda9-4bd6-a57b-cffeddad8344" gradientUnits="userSpaceOnUse" x1="103.65331" y1="89.06102" x2="99.31657" y2="104.40638"> <stop offset="0" style="stop-color:#FFFFFF;stop-opacity:0.9"></stop> <stop offset="1" style="stop-color:#FFFFFF;stop-opacity:0"></stop> </linearGradient> <path class="highlight" fill="url(#c70c5d94-fda9-4bd6-a57b-cffeddad8344)" d="M107.70697,93.00739l-7.30072-0.00018v0.00006l-23.87408,0.00018l0.00012,11.28143l23.87463-0.00018 v-0.00006h2.82019c2.47418,0,4.47986,2.00568,4.47986,4.47986s-2.00568,4.47992-4.47986,4.47992l-2.82086-0.00018v0.00012 l-23.87439,0.00012l0.00006,11.28143l23.87506-0.00012v-0.00012h7.29999c8.70465,0,15.76117-7.05652,15.76117-15.76117 S116.41162,93.00739,107.70697,93.00739z" transform="translate(313.35445 -124.49339)" stroke-width="0" stroke-linejoin="miter" stroke-miterlimit="2" opacity="1"></path> <linearGradient id="35846ada-d485-4e64-98d5-e5d552c1d89a" gradientUnits="userSpaceOnUse" x1="85.82545" y1="122.19437" x2="95.53294" y2="109.42136"> <stop offset="0" style="stop-color:#231F20;stop-opacity:0.4"></stop> <stop offset="0.8228" style="stop-color:#231F20;stop-opacity:0"></stop> </linearGradient> <path class="highlight" fill="url(#35846ada-d485-4e64-98d5-e5d552c1d89a)" d="M107.70697,93.00739l-7.30072-0.00018v0.00006l-23.87408,0.00018l0.00012,11.28143l23.87463-0.00018 v-0.00006h2.82019c2.47418,0,4.47986,2.00568,4.47986,4.47986s-2.00568,4.47992-4.47986,4.47992l-2.82086-0.00018v0.00012 l-23.87439,0.00012l0.00006,11.28143l23.87506-0.00012v-0.00012h7.29999c8.70465,0,15.76117-7.05652,15.76117-15.76117 S116.41162,93.00739,107.70697,93.00739z" transform="translate(313.35445 -124.49339)" stroke-width="0" stroke-linejoin="miter" stroke-miterlimit="2" opacity="1"></path> </g>
        <path id="path621605" style="font-style:normal;font-weight:normal;font-size:72px;line-height:1;font-family:'Brandmark Sans 28';font-variant-ligatures:normal;text-align:center;text-anchor:middle" d="m 440.66994,-22.968 v 7.272 h 18.864 v -7.272 z" stroke-width="0" stroke-linejoin="miter" stroke-miterlimit="2" fill="#8757ae" stroke="#8757ae" transform="translate(0 324.83187999999996) translate(391.36171335 62.83544) scale(1.67) translate(-440.66994 22.968)"></path>
        <g id="path621607" aria-label="G" transform="translate(0 324.83187999999996) translate(428.9536137500001 15.701360000000001) scale(1.67) translate(-463.18006 51.192)"> <linearGradient id="12c6f748-4c2e-4ad0-8b4a-29a9dcbd7e92" gradientUnits="userSpaceOnUse" x1="116.39185" y1="103.29822" x2="109.90691" y2="83.03278" gradientTransform="matrix(1 0 0 -1 0 202)"> <stop offset="0" style="stop-color:#000000;stop-opacity:0.4"></stop> <stop offset="0.27595" style="stop-color:#0F0D0D;stop-opacity:0.28962"></stop> <stop offset="0.67484" style="stop-color:#1E1A1B;stop-opacity:0.13006"></stop> <stop offset="1" style="stop-color:#231F20;stop-opacity:0"></stop> </linearGradient> <path class="highlight" fill="url(#12c6f748-4c2e-4ad0-8b4a-29a9dcbd7e92)" d="M119.2085,99.31262h-5.44165c0,1.85156-0.41809,3.61676-1.17456,5.20282 c-2.10376,4.45953-6.83545,7.5719-12.32349,7.5719c-0.09082,0-0.17847-0.01117-0.2688-0.01288v13.27869 c0.08997,0.00085,0.17871,0.00665,0.2688,0.00665c12.92737,0,23.75098-8.96552,26.23291-20.84436v-0.00665L119.2085,99.31262z" transform="translate(389.68177 -124.45743)" stroke-width="0" stroke-linejoin="miter" stroke-miterlimit="2" opacity="1"></path> <path class="c1" d="M119.2085,99.31262l-7.2998-5.20276h-9.24426v10.40558h9.92786 c-2.10376,4.45953-6.83545,7.5719-12.32349,7.5719c-0.09082,0-0.17847-0.01117-0.2688-0.01288 c-7.3208-0.13739-13.22925-5.80658-13.22925-12.76184c0-7.04767,6.05225-12.77472,13.49805-12.77472 c3.59009,0,6.86182,1.33386,9.27734,3.49731l9.38379-9.38367c-4.8313-4.56573-11.41431-7.38611-18.66113-7.38611 c-14.75903,0-26.77051,11.6864-26.77051,26.04718c0,14.27307,11.86646,25.89899,26.50171,26.04053 c0.08997,0.00085,0.17871,0.00665,0.2688,0.00665c12.92737,0,23.75098-8.96552,26.23291-20.84436l0,0v-0.00665L119.2085,99.31262z" transform="translate(389.68177 -124.45743)" stroke-width="0" stroke-linejoin="miter" stroke-miterlimit="2" fill="#6376bf" stroke="#6376bf"></path> <linearGradient id="6f0f7329-9cba-40d5-a6d8-67854d853b0e" gradientUnits="userSpaceOnUse" x1="102.66445" y1="102.68734" x2="126.50177" y2="102.68734" gradientTransform="matrix(1 0 0 -1 0 202)"> <stop offset="0.30327" style="stop-color:#FFFFFF;stop-opacity:0"></stop> <stop offset="1" style="stop-color:#FFFFFF;stop-opacity:0.5"></stop> </linearGradient> <polygon class="highlight" fill="url(#6f0f7329-9cba-40d5-a6d8-67854d853b0e)" points="126.50177,104.50881 126.50177,104.51546 102.66445,104.51546 102.66445,94.10986 111.90871,94.10986 119.20856,99.31264 " transform="translate(389.68177 -124.45743)" stroke-width="0" stroke-linejoin="miter" stroke-miterlimit="2" opacity="1"></polygon> <linearGradient id="53309d8a-a27a-4c40-b230-40283ea096b2" gradientUnits="userSpaceOnUse" x1="102.66445" y1="102.68734" x2="126.50177" y2="102.68734" gradientTransform="matrix(1 0 0 -1 0 202)"> <stop offset="0" style="stop-color:#000000;stop-opacity:0.4"></stop> <stop offset="0.2169" style="stop-color:#0F0E0E;stop-opacity:0.25"></stop> <stop offset="0.51036" style="stop-color:#1E1B1B;stop-opacity:0.1"></stop> <stop offset="0.75683" style="stop-color:#231F20;stop-opacity:0"></stop> </linearGradient> <polygon class="highlight" fill="url(#53309d8a-a27a-4c40-b230-40283ea096b2)" points="126.50177,104.50881 126.50177,104.51546 102.66445,104.51546 102.66445,94.10986 111.90871,94.10986 119.20856,99.31264 " transform="translate(389.68177 -124.45743)" stroke-width="0" stroke-linejoin="miter" stroke-miterlimit="2" opacity="1"></polygon> <linearGradient id="705440c2-0f62-4361-98b1-44f608923845" gradientUnits="userSpaceOnUse" x1="96.21411" y1="76.64686" x2="96.21411" y2="128.73456" gradientTransform="matrix(1 0 0 -1 0 202)"> <stop offset="0.17505" style="stop-color:#FFFFFF;stop-opacity:0"></stop> <stop offset="1" style="stop-color:#FFFFFF;stop-opacity:0.5"></stop> </linearGradient> <path class="highlight" fill="url(#705440c2-0f62-4361-98b1-44f608923845)" d="M86.77075,99.31262c0-7.04767,6.05225-12.77472,13.49805-12.77472 c3.59009,0,6.86182,1.33386,9.27734,3.49731l9.38379-9.38367c-4.8313-4.56573-11.41431-7.38611-18.66113-7.38611 c-14.75903,0-26.77051,11.6864-26.77051,26.04718c0,14.27307,11.86646,25.89899,26.50171,26.04053v-13.27869 C92.6792,111.93707,86.77075,106.26788,86.77075,99.31262z" transform="translate(389.68177 -124.45743)" stroke-width="0" stroke-linejoin="miter" stroke-miterlimit="2" opacity="1"></path> </g>
        <g id="path621609" aria-label="R" transform="translate(0 324.83187999999996) translate(515.09618835 17.024000000000008) scale(1.67) translate(-514.76244 50.4)"> <path class="c1" d="M121.67407,92.85052v-0.00006c0-10.35925-8.39795-18.75708-18.75708-18.75708l-24.59106,0.00018v13.27228 l24.59106-0.00018c3.02905,0.00012,5.48486,2.45563,5.48486,5.4848v0.00006c0,3.02893-2.45508,5.48425-5.48413,5.48474v-0.00085 l-8.00049,0.00018l-5.30884,13.27222l10.68262,12.92279h18.58203l-12.16772-13.30518 C115.24854,109.47223,121.67407,101.91193,121.67407,92.85052z" transform="translate(436.43651 -124.49338)" stroke-width="0" stroke-linejoin="miter" stroke-miterlimit="2" fill="#6376bf" stroke="#6376bf"></path> <linearGradient id="fbfef246-c118-4c17-805c-7cf12576d967" gradientUnits="userSpaceOnUse" x1="92.97134" y1="104.19817" x2="108.90907" y2="123.81383"> <stop offset="0" style="stop-color:#FFFFFF;stop-opacity:0.5"></stop> <stop offset="0.01383" style="stop-color:#FFFFFF;stop-opacity:0.49309"></stop> <stop offset="1" style="stop-color:#FFFFFF;stop-opacity:0"></stop> </linearGradient> <polygon class="highlight" fill="url(#fbfef246-c118-4c17-805c-7cf12576d967)" points="100.29094,124.52959 118.87318,124.52959 94.91724,98.33458 89.60835,111.60686 " transform="translate(436.43651 -124.49338)" stroke-width="0" stroke-linejoin="miter" stroke-miterlimit="2" opacity="1"></polygon> <linearGradient id="d1ea6655-d414-4f28-894d-fac440e867d2" gradientUnits="userSpaceOnUse" x1="100" y1="92.85046" x2="100" y2="74.09338"> <stop offset="0" style="stop-color:#FFFFFF;stop-opacity:0"></stop> <stop offset="0.98617" style="stop-color:#FFFFFF;stop-opacity:0.49309"></stop> <stop offset="1" style="stop-color:#FFFFFF;stop-opacity:0.5"></stop> </linearGradient> <path class="highlight" fill="url(#d1ea6655-d414-4f28-894d-fac440e867d2)" d="M102.91699,74.09338v0.00079V74.09338l-24.59106,0.00018v13.27228l24.59106-0.00018 c3.02905,0.00012,5.48486,2.45563,5.48486,5.4848h13.27222C121.67407,82.49121,113.27612,74.09338,102.91699,74.09338z" transform="translate(436.43651 -124.49338)" stroke-width="0" stroke-linejoin="miter" stroke-miterlimit="2" opacity="1"></path> <linearGradient id="050ebf95-3a40-4ca6-a79d-27c7d2b282df" gradientUnits="userSpaceOnUse" x1="86.54824" y1="102.03745" x2="111.8803" y2="102.03745"> <stop offset="0.25563" style="stop-color:#000000;stop-opacity:0.4"></stop> <stop offset="0.46104" style="stop-color:#0F0D0D;stop-opacity:0.28962"></stop> <stop offset="0.75796" style="stop-color:#1E1A1B;stop-opacity:0.13006"></stop> <stop offset="1" style="stop-color:#231F20;stop-opacity:0"></stop> </linearGradient> <path class="highlight" fill="url(#050ebf95-3a40-4ca6-a79d-27c7d2b282df)" d="M121.67407,92.85052v-0.00006h-13.27222v0.00006c0,3.02893-2.45508,5.48425-5.48413,5.48474 v-0.00085l-8.00049,0.00018l11.78809,12.88983C115.24854,109.47223,121.67407,101.91193,121.67407,92.85052z" transform="translate(436.43651 -124.49338)" stroke-width="0" stroke-linejoin="miter" stroke-miterlimit="2" opacity="1"></path> </g>
        <g id="path621611" aria-label="I" transform="translate(0 324.83187999999996) translate(597.89645835 17.024000000000008) scale(1.67) translate(-564.34344 50.4)"> <polygon class="c1" points="92.68457,74.11133 92.68457,88.72443 92.68457,91.32794 92.68457,124.52972 107.28516,124.52972 107.28516,91.32739 107.28516,88.72552 107.28516,74.11133 " transform="translate(471.65889 -124.49351)" stroke-width="0" stroke-linejoin="miter" stroke-miterlimit="2" fill="#6376bf" stroke="#6376bf"></polygon> <linearGradient id="bc7912ed-2553-495f-90c9-f0b975f9dc1f" gradientUnits="userSpaceOnUse" x1="99.9849" y1="88.29665" x2="99.9849" y2="123.32087"> <stop offset="0" style="stop-color:#000000;stop-opacity:0.4"></stop> <stop offset="0.27595" style="stop-color:#0F0D0D;stop-opacity:0.28962"></stop> <stop offset="0.67484" style="stop-color:#1E1A1B;stop-opacity:0.13006"></stop> <stop offset="1" style="stop-color:#231F20;stop-opacity:0"></stop> </linearGradient> <rect x="92.68465" y="88.72499" class="highlight" fill="url(#bc7912ed-2553-495f-90c9-f0b975f9dc1f)" width="14.6005" height="35.80472" transform="translate(471.65889 -124.49351)" stroke-width="0" stroke-linejoin="miter" stroke-miterlimit="2" opacity="1"></rect> <linearGradient id="7e3cde37-c358-4985-b34e-ba511d393d6d" gradientUnits="userSpaceOnUse" x1="96.08685" y1="85.06548" x2="104.20254" y2="77.45702"> <stop offset="0" style="stop-color:#000000;stop-opacity:0.4"></stop> <stop offset="0.27595" style="stop-color:#0F0D0D;stop-opacity:0.28962"></stop> <stop offset="0.67484" style="stop-color:#1E1A1B;stop-opacity:0.13006"></stop> <stop offset="1" style="stop-color:#231F20;stop-opacity:0"></stop> </linearGradient> <polygon class="highlight" fill="url(#7e3cde37-c358-4985-b34e-ba511d393d6d)" points="107.28516,74.11133 92.70239,74.11133 107.28516,88.69415 " transform="translate(471.65889 -124.49351)" stroke-width="0" stroke-linejoin="miter" stroke-miterlimit="2" opacity="1"></polygon> <linearGradient id="7050cf72-5b08-46f5-a631-d89d830fbbaf" gradientUnits="userSpaceOnUse" x1="100.20536" y1="81.20361" x2="92.47973" y2="88.92923"> <stop offset="0" style="stop-color:#FFFFFF;stop-opacity:0.5"></stop> <stop offset="0.01383" style="stop-color:#FFFFFF;stop-opacity:0.49309"></stop> <stop offset="1" style="stop-color:#FFFFFF;stop-opacity:0"></stop> </linearGradient> <polygon class="highlight" fill="url(#7050cf72-5b08-46f5-a631-d89d830fbbaf)" points="107.31545,88.72442 92.68455,74.09351 92.68456,88.72442 " transform="translate(471.65889 -124.49351)" stroke-width="0" stroke-linejoin="miter" stroke-miterlimit="2" opacity="1"></polygon> </g>
        <g id="path621613" aria-label="D" transform="translate(0 324.83187999999996) translate(635.32302875 17.024000000000008) scale(1.67) translate(-586.75456 50.4)"> <path class="c1" d="M99.2851,74.09357v0.00183l-0.00018-0.00244l-9.27466,0.00018l-0.00067,0.00891v-0.00873L75.40912,87.3656 v37.16412h14.60046v-0.01465l9.27551-0.00018v0.00073c13.95361,0,25.30579-11.16272,25.30579-25.11627 C124.59088,85.44574,113.23871,74.09357,99.2851,74.09357z M99.2851,111.24316l-0.00006-0.00055l-9.27545,0.00018V87.36542 l9.27551-0.00018v0.00073c6.63525,0,12.03339,5.39813,12.03339,12.03339S105.92035,111.24316,99.2851,111.24316z" transform="translate(511.34546 -124.49296)" stroke-width="0" stroke-linejoin="miter" stroke-miterlimit="2" fill="#6376bf" stroke="#6376bf"></path> <linearGradient id="059f56c5-a717-4873-8f1a-86267e4ef032" gradientUnits="userSpaceOnUse" x1="90.00952" y1="99.30429" x2="124.59088" y2="99.30429"> <stop offset="0" style="stop-color:#000000;stop-opacity:0.4"></stop> <stop offset="0.27595" style="stop-color:#0F0D0D;stop-opacity:0.28962"></stop> <stop offset="0.67484" style="stop-color:#1E1A1B;stop-opacity:0.13006"></stop> <stop offset="1" style="stop-color:#231F20;stop-opacity:0"></stop> </linearGradient> <path class="highlight" fill="url(#059f56c5-a717-4873-8f1a-86267e4ef032)" d="M99.2851,74.09357v0.00183l-0.00018-0.00244l-9.27466,0.00018l0.00012,13.27228l9.27472-0.00018 v0.00073c6.63525,0,12.03339,5.39813,12.03339,12.03339s-5.39813,11.84381-12.03339,11.84381l-0.00006-0.00055l-9.27551,0.00018 l0.00006,13.27228l9.27551-0.00018v0.00073c13.95361,0,25.30579-11.16272,25.30579-25.11627 C124.59088,85.44574,113.23871,74.09357,99.2851,74.09357z" transform="translate(511.34546 -124.49296)" stroke-width="0" stroke-linejoin="miter" stroke-miterlimit="2" opacity="1"></path> <linearGradient id="dc66f119-6afd-42e2-9572-29ab45cd9acc" gradientUnits="userSpaceOnUse" x1="82.70934" y1="124.52972" x2="82.70934" y2="74.09335"> <stop offset="0" style="stop-color:#000000;stop-opacity:0.3"></stop> <stop offset="0.21414" style="stop-color:#0F0D0D;stop-opacity:0.21727"></stop> <stop offset="0.52404" style="stop-color:#1E1A1B;stop-opacity:0.09755"></stop> <stop offset="0.77654" style="stop-color:#231F20;stop-opacity:0"></stop> </linearGradient> <polygon class="highlight" fill="url(#dc66f119-6afd-42e2-9572-29ab45cd9acc)" points="75.4091,124.52972 90.00959,124.52972 90.00959,74.09335 75.4091,87.36559 " transform="translate(511.34546 -124.49296)" stroke-width="0" stroke-linejoin="miter" stroke-miterlimit="2" opacity="1"></polygon> <linearGradient id="10f3fc68-b7e7-46fd-80d7-2e39f4cc4f11" gradientUnits="userSpaceOnUse" x1="82.70934" y1="124.52972" x2="82.70934" y2="74.09335"> <stop offset="0.18736" style="stop-color:#FFFFFF;stop-opacity:0"></stop> <stop offset="0.98876" style="stop-color:#FFFFFF;stop-opacity:0.49309"></stop> <stop offset="1" style="stop-color:#FFFFFF;stop-opacity:0.5"></stop> </linearGradient> <polygon class="highlight" fill="url(#10f3fc68-b7e7-46fd-80d7-2e39f4cc4f11)" points="75.4091,124.52972 90.00959,124.52972 90.00959,74.09335 75.4091,87.36559 " transform="translate(511.34546 -124.49296)" stroke-width="0" stroke-linejoin="miter" stroke-miterlimit="2" opacity="1"></polygon> </g>
           </g>
      <image xlink:href="https://app.brandmark.io/v3/custom_icons/preview/akronim/B.png" id="icon" x="0" y="0" style="display: none;"></image>
    </g>
  </g>
</svg>